<?xml version="1.0" encoding="utf-8"?>
<!-- Generator: Adobe Illustrator 22.0.0, SVG Export Plug-In . SVG Version: 6.00 Build 0)  -->
<svg version="1.1" id="Capa_1" xmlns="http://www.w3.org/2000/svg" xmlns:xlink="http://www.w3.org/1999/xlink" x="0px" y="0px"
	 viewBox="0 0 1366 768" style="enable-background:new 0 0 1366 768;" xml:space="preserve">
<style type="text/css">
	.st0{fill:#F7F7FF;stroke:#000000;stroke-miterlimit:10;}
	.st1{fill:#D81159;stroke:#020202;stroke-miterlimit:10;}
	.st2{fill:#F7F7FF;}
	.st3{stroke:#F7F7FF;stroke-width:7;stroke-miterlimit:10;}
</style>
<circle class="st0" cx="860" cy="539" r="29"/>
<path class="st1" d="M552.3,271l-20.4-7.4c-7.2-2.6-15.1,1.1-17.9,8.2L410.4,538c-2.9,7.6,1.1,16.2,8.8,18.9l19.8,6.7
	c7.3,2.4,15.2-1.2,18-8.4l103.6-265.8C563.5,282,559.8,273.7,552.3,271z"/>
<path class="st0" d="M573.5,445.5"/>
<polyline class="st2" points="572,444 572,444 572,444 575,447 573,441 571,442 572,444 "/>
<polyline class="st2" points="577,448 572.9,446 572,445 571.7,443.4 575,444 577,448 "/>
<path class="st3" d="M774.4,324.9l-17.6-15.3c-4.1-3.6-10-3.9-14.5-0.9L582.2,416.3l-19.3,13c-4.6,3-3.9,9.9,0.7,12.3
	c0.2,0.1,0.3,0.3,0.5,0.4l174,118.7c6.3,4.2,14.7,3.2,19.9-2.6l10.6-12.4c5.7-6.6,4.4-16.6-2.6-21.8L642,434.5l131.4-90.6
	C780,339.4,780.5,329.9,774.4,324.9z"/>
</svg>
