<?xml version="1.0" encoding="utf-8"?>
<!-- Generator: Adobe Illustrator 22.0.0, SVG Export Plug-In . SVG Version: 6.00 Build 0)  -->
<svg version="1.1" id="Capa_1" xmlns="http://www.w3.org/2000/svg" xmlns:xlink="http://www.w3.org/1999/xlink" x="0px" y="0px"
	 viewBox="0 0 1366 768" style="enable-background:new 0 0 1366 768;" xml:space="preserve">
<style type="text/css">
	.st0{stroke:#020202;stroke-miterlimit:10;}
	.st1{fill:#F7F7FF;stroke:#000000;stroke-miterlimit:10;}
	.st2{fill:#F7F7FF;}
	.st3{fill:#D81159;}
	.st4{fill:none;stroke:#020202;stroke-miterlimit:10;}
</style>
<circle class="st0" cx="860" cy="539" r="29"/>
<path class="st1" d="M552.3,271l-20.4-7.4c-7.2-2.6-15.1,1.1-17.9,8.2L410.4,538c-2.9,7.6,1.1,16.2,8.8,18.9l19.8,6.7
	c7.3,2.4,15.2-1.2,18-8.4l103.6-265.8C563.5,282,559.8,273.7,552.3,271z"/>
<path class="st1" d="M573.5,445.5"/>
<polyline class="st2" points="572,444 572,444 572,444 575,447 573,441 571,442 572,444 "/>
<polyline class="st2" points="577,448 572.9,446 572,445 571.7,443.4 575,444 577,448 "/>
<g>
	<path class="st3" d="M774.6,336.5l-16.7-14.6c-3.9-3.4-9.5-3.7-13.8-0.9L591.8,423.5l-18.4,12.4c-4.4,2.9-3.7,9.4,0.7,11.7
		c0.2,0.1,0.3,0.3,0.5,0.4l165.5,112.9c6,4,14,3,18.9-2.5l10.1-11.8c5.4-6.3,4.2-15.8-2.5-20.7l-117.9-85.1l125-86.2
		C779.9,350.3,780.4,341.3,774.6,336.5z"/>
	<path class="st4" d="M774.6,336.5l-16.7-14.6c-3.9-3.4-9.5-3.7-13.8-0.9L591.8,423.5l-18.4,12.4c-4.4,2.9-3.7,9.4,0.7,11.7
		c0.2,0.1,0.3,0.3,0.5,0.4l165.5,112.9c6,4,14,3,18.9-2.5l10.1-11.8c5.4-6.3,4.2-15.8-2.5-20.7l-117.9-85.1l125-86.2
		C779.9,350.3,780.4,341.3,774.6,336.5z"/>
</g>
</svg>
